<?xml version="1.0" encoding="utf-8"?>
<!-- Generator: Adobe Illustrator 21.1.0, SVG Export Plug-In . SVG Version: 6.00 Build 0)  -->
<svg version="1.1" id="Layer_1" xmlns="http://www.w3.org/2000/svg" xmlns:xlink="http://www.w3.org/1999/xlink" x="0px" y="0px"
	 viewBox="0 0 72 72" style="enable-background:new 0 0 72 72;" xml:space="preserve">
<style type="text/css">
	.st0{fill:#FFFFFF;}
	.st1{fill:#FC4F4F;}
</style>
<g>
	<circle class="st0" cx="53" cy="5.9" r="5.9"/>
	<path class="st0" d="M54.2,24.8c0-11.7-9.5-21.1-21.1-21.1C21.4,3.7,12,13.2,12,24.8C12,36.5,21.4,46,33.1,46
		c1.6,0,3.2-0.2,4.7-0.5c-0.1-0.3-0.1-0.6-0.1-0.9c0-2,1.6-3.7,3.7-3.7c1.3,0,2.5,0.7,3.1,1.7C50.3,38.9,54.2,32.3,54.2,24.8z
		 M33.1,34.5c-5.3,0-9.7-4.3-9.7-9.7c0-5.3,4.3-9.7,9.7-9.7s9.7,4.3,9.7,9.7C42.8,30.2,38.4,34.5,33.1,34.5z"/>
	<path class="st0" d="M38.2,46.5h-4.9c-0.3,0-0.6,0-0.9,0c-6.3,0.4-11.2,5.7-11.2,12c0,6.4,4.9,11.6,11.2,12v0h0h1.7h17.1L46,60.8
		H32.5v0c-0.9-0.5-1.6-1.4-1.6-2.5c0-1.1,0.6-2.1,1.6-2.5v0H35h8.3L38.2,46.5z"/>
	<polygon class="st1" points="51.2,70.6 55.5,71.8 55.8,71.9 55.8,71.9 55.8,71.9 56.2,72 56.4,71.3 57.5,67.3 	"/>
</g>
</svg>
